<svg width="150" height="70" viewBox="0 0 150 70" fill="none" xmlns="http://www.w3.org/2000/svg">
<path d="M146.884 0L128.371 69.9153H131.485L150 0H146.884Z" fill="#8E8E8E"/>
<path d="M140.575 0L122.06 69.9153H125.177L143.691 0H140.575Z" fill="#8E8E8E"/>
<path d="M134.267 0L117.483 63.3796V63.3814L115.899 69.3564L115.752 69.9153H118.868L119.133 68.9114L137.381 0H134.267Z" fill="#8E8E8E"/>
<path d="M131.073 0H127.956L114.138 52.1816L112.558 58.1566L110.918 64.3438L109.443 69.9153H112.559L112.57 69.8756L114.208 63.6884L115.79 57.7133L131.073 0Z" fill="#8E8E8E"/>
<path d="M94.2212 0L75.708 69.9153H78.8242L97.3374 0H94.2212Z" fill="#00008B"/>
<path d="M87.9126 0L69.3994 69.9153H72.5156L91.0288 0H87.9126Z" fill="#00008B"/>
<path d="M49.7978 0L31.2828 69.9153H34.399L52.9139 0H49.7978Z" fill="#00008B"/>
<path d="M43.4892 0L24.9742 69.9153H28.0904L46.6036 0H43.4892Z" fill="#00008B"/>
<path d="M37.1789 0L20.1475 64.318L3.11615 0H0L18.5132 69.9153H18.6657H21.6294H21.7819L40.2951 0H37.1789Z" fill="#00008B"/>
<path d="M22.307 48.649L9.42475 0H6.30859L20.7559 54.5568L22.307 48.649Z" fill="#00008B"/>
<path d="M25.4492 36.6868L15.7333 0H12.6171L23.898 42.5946L25.4492 36.6868Z" fill="#00008B"/>
<path d="M28.5895 24.7247L22.0435 0H18.9274L27.0384 30.6325L28.5895 24.7247Z" fill="#00008B"/>
<path d="M78.4099 0H75.2938L67.7668 28.4246L58.9175 0H56.1064L49.7268 24.0934L48.0872 30.2806L46.5863 35.9486L37.5914 69.9135H40.7076L48.238 41.4786L48.2536 41.42L56.7875 69.8911L56.7823 69.9135H59.8984L59.9088 69.8739L61.5484 63.6867L63.1307 57.7116L78.4099 0ZM57.6523 5.92847L66.1862 34.3996L64.5952 40.4057L56.1306 11.6776L57.6523 5.92847ZM59.895 58.1566L58.3698 63.9178L49.8359 35.4466L51.3767 29.6251L59.895 58.1566ZM61.4773 52.1816L52.959 23.6501L54.5466 17.6526L63.0111 46.3808L61.4773 52.1816Z" fill="#00008B"/>
<path d="M81.6041 0L64.8205 63.3796V63.3814L63.2382 69.3564L63.0891 69.9153H66.2053L66.4722 68.9114L84.7202 0H81.6041Z" fill="#00008B"/>
<path d="M124.962 0H98.5817V2.97717H124.339L124.962 0Z" fill="#8E8E8E"/>
<path d="M122.052 12.1019H98.5817V15.079H121.431L122.052 12.1019Z" fill="#8E8E8E"/>
<path d="M123.589 6.01819H98.5817V8.99536H122.967L123.589 6.01819Z" fill="#8E8E8E"/>
</svg>
